<?xml version="1.0" standalone="no"?>
<!DOCTYPE svg PUBLIC "-//W3C//DTD SVG 20010904//EN"
 "http://www.w3.org/TR/2001/REC-SVG-20010904/DTD/svg10.dtd">
<svg version="1.0" xmlns="http://www.w3.org/2000/svg"
 width="180.000000pt" height="180.000000pt" viewBox="0 0 180.000000 180.000000"
 preserveAspectRatio="xMidYMid meet">

<g transform="translate(0.000000,180.000000) scale(0.100000,-0.100000)"
fill="#000000" stroke="none">
<path d="M72 1473 c3 -10 115 -276 249 -590 l244 -573 86 0 87 0 141 329 c78
181 141 332 141 336 0 3 -41 4 -92 3 l-92 -3 -92 -214 -92 -215 -15 35 c-8 19
-98 231 -202 472 l-187 437 -90 0 c-81 0 -90 -2 -86 -17z"/>
<path d="M1535 1458 c-61 -146 -387 -903 -389 -906 -2 -1 -14 23 -26 55 -13
32 -26 61 -29 65 -4 4 -27 -40 -53 -99 l-46 -107 33 -75 32 -76 88 0 89 0 248
580 c136 319 248 583 248 588 0 4 -41 7 -91 7 l-90 0 -14 -32z"/>
</g>
</svg>
