<svg width="12" height="24" viewBox="0 0 12 24" fill="none" xmlns="http://www.w3.org/2000/svg">
<path d="M1.95005 23.6667C2.19904 23.6675 2.44506 23.6126 2.67003 23.5059C2.89499 23.3991 3.09319 23.2434 3.25005 23.05L11.3001 13.05C11.5452 12.7518 11.6792 12.3777 11.6792 11.9917C11.6792 11.6056 11.5452 11.2316 11.3001 10.9333L2.96672 0.933337C2.68382 0.592975 2.2773 0.378935 1.83659 0.338302C1.39588 0.297669 0.95708 0.433772 0.616719 0.71667C0.276358 0.999567 0.0623178 1.40609 0.0216849 1.8468C-0.018948 2.28751 0.117154 2.72631 0.400052 3.06667L7.85005 12L0.650053 20.9333C0.446248 21.178 0.316786 21.4759 0.276987 21.7918C0.237187 22.1077 0.288716 22.4284 0.425475 22.716C0.562235 23.0035 0.778502 23.2459 1.04869 23.4143C1.31887 23.5828 1.63166 23.6704 1.95005 23.6667Z" fill="#FE4A49"/>
</svg>
