<svg width="12" height="24" viewBox="0 0 12 24" fill="none" xmlns="http://www.w3.org/2000/svg">
    <path d="M10.0499 23.6667C9.80096 23.6675 9.55494 23.6126 9.32997 23.5059C9.10501 23.3991 8.90681 23.2434 8.74995 23.05L0.699948 13.05C0.454811 12.7518 0.320801 12.3777 0.320801 11.9917C0.320801 11.6056 0.454811 11.2316 0.699948 10.9333L9.03328 0.933337C9.31618 0.592975 9.7227 0.378935 10.1634 0.338302C10.6041 0.297669 11.0429 0.433772 11.3833 0.71667C11.7236 0.999567 11.9377 1.40609 11.9783 1.8468C12.0189 2.28751 11.8828 2.72631 11.5999 3.06667L4.14995 12L11.3499 20.9333C11.5538 21.178 11.6832 21.4759 11.723 21.7918C11.7628 22.1077 11.7113 22.4284 11.5745 22.716C11.4378 23.0035 11.2215 23.2459 10.9513 23.4143C10.6811 23.5828 10.3683 23.6704 10.0499 23.6667Z" fill="#D6D3DC" />
</svg>
    