<svg viewBox="0 0 25 24" fill="none" xmlns="http://www.w3.org/2000/svg">
    <path d="M9.25164 21.9535C9.77518 21.9535 10.1996 21.5291 10.1996 21.0055C10.1996 20.482 9.77518 20.0576 9.25164 20.0576C8.7281 20.0576 8.30371 20.482 8.30371 21.0055C8.30371 21.5291 8.7281 21.9535 9.25164 21.9535Z" stroke="#151528" stroke-width="2" stroke-linecap="round" stroke-linejoin="round" />
    <path d="M19.6789 21.9535C20.2024 21.9535 20.6268 21.5291 20.6268 21.0055C20.6268 20.482 20.2024 20.0576 19.6789 20.0576C19.1553 20.0576 18.731 20.482 18.731 21.0055C18.731 21.5291 19.1553 21.9535 19.6789 21.9535Z" stroke="#151528" stroke-width="2" stroke-linecap="round" stroke-linejoin="round" />
    <path d="M1.66821 2.04688H5.45993L8.00039 14.7397C8.08703 15.1761 8.32448 15.5682 8.67105 15.8471C9.01771 16.1261 9.45138 16.2744 9.89625 16.2658H19.1101C19.555 16.2744 19.9887 16.1261 20.3353 15.8471C20.6819 15.5682 20.9193 15.1761 21.006 14.7397L22.5227 6.78653H6.40786" stroke="#151528" stroke-width="2" stroke-linecap="round" stroke-linejoin="round" />
</svg>
    