<svg width="25" height="24" xmlns="http://www.w3.org/2000/svg" fill="none">

 <g>
  <title>Layer 1</title>
  <path id="svg_1" stroke-linejoin="round" stroke-linecap="round" stroke-width="2" stroke="#fe4a49" d="m9.25164,21.9535c0.52354,0 0.94796,-0.4244 0.94796,-0.948c0,-0.5235 -0.42442,-0.9479 -0.94796,-0.9479c-0.52354,0 -0.94793,0.4244 -0.94793,0.9479c0,0.5236 0.42439,0.948 0.94793,0.948z"/>
  <path id="svg_2" stroke-linejoin="round" stroke-linecap="round" stroke-width="2" stroke="#fe4a49" d="m19.6789,21.9535c0.5235,0 0.9479,-0.4244 0.9479,-0.948c0,-0.5235 -0.4244,-0.9479 -0.9479,-0.9479c-0.5236,0 -0.9479,0.4244 -0.9479,0.9479c0,0.5236 0.4243,0.948 0.9479,0.948z"/>
  <path id="svg_3" stroke-linejoin="round" stroke-linecap="round" stroke-width="2" stroke="#fe4a49" d="m1.66821,2.04688l3.79172,0l2.54046,12.69282c0.08664,0.4364 0.32409,0.8285 0.67066,1.1074c0.34666,0.279 0.78033,0.4273 1.2252,0.4187l9.21385,0c0.4449,0.0086 0.8786,-0.1397 1.2252,-0.4187c0.3466,-0.2789 0.584,-0.671 0.6707,-1.1074l1.5167,-7.95317l-16.11484,0"/>
 </g>
</svg>