<svg width="26" height="26" viewBox="0 0 26 26" fill="none" xmlns="http://www.w3.org/2000/svg">
<g clip-path="url(#clip0_1095:2464)">
<path fill-rule="evenodd" clip-rule="evenodd" d="M11.9619 19.4052L9.95951 17.4028L11.0159 16.2991L14.3742 19.6574V20.7611L11.0159 24.1194L9.89644 23L11.8988 20.9976H8.98198C8.46376 20.9997 7.95027 20.8991 7.4711 20.7018C6.99193 20.5044 6.55658 20.2142 6.19014 19.8477C5.82371 19.4813 5.53345 19.046 5.3361 18.5668C5.13875 18.0876 5.03822 17.5741 5.0403 17.0559V8.3054C4.28489 8.14457 3.59057 7.77281 3.03793 7.23327C2.48904 6.67868 2.1156 5.97475 1.96419 5.2093C1.81278 4.44384 1.89011 3.65075 2.18653 2.92896C2.4857 2.20961 2.99133 1.59505 3.63956 1.16289C4.2878 0.730738 5.04956 0.500373 5.82864 0.500892C6.36937 0.489268 6.90652 0.591326 7.40531 0.80046C7.88312 0.997025 8.31725 1.28634 8.68259 1.65168C9.04793 2.01702 9.33724 2.45114 9.53381 2.92896C9.74351 3.42877 9.84441 3.96641 9.83338 4.50563C9.83356 5.41431 9.51979 6.29514 8.94517 6.99906C8.37054 7.70297 7.57036 8.18673 6.68004 8.36847V17.0401C6.68004 17.6674 6.92921 18.2689 7.37273 18.7125C7.81626 19.156 8.4178 19.4052 9.04504 19.4052H11.9619ZM4.58307 6.39763C5.03797 6.7007 5.5838 6.83684 6.12774 6.78289C6.67168 6.72895 7.18014 6.48826 7.56665 6.10175C7.95316 5.71524 8.19386 5.20677 8.2478 4.66283C8.30174 4.11889 8.16561 3.57306 7.86254 3.11816C7.59808 2.72635 7.22566 2.41965 6.79041 2.23523C6.36079 2.06023 5.88899 2.01634 5.43447 2.10909C4.9741 2.19812 4.55091 2.42288 4.21934 2.75444C3.88778 3.086 3.66303 3.50919 3.574 3.96956C3.48125 4.42408 3.52514 4.89589 3.70013 5.3255C3.8846 5.76224 4.19048 6.13433 4.58307 6.39763ZM20.8701 16.3306C21.6269 16.4852 22.3237 16.8588 22.8724 17.4028C23.5153 18.0496 23.915 18.8985 24.0041 19.8061C24.0931 20.7136 23.866 21.6241 23.3612 22.3835C23.0369 22.867 22.6096 23.2726 22.1099 23.5713C21.6102 23.8699 21.0505 24.0542 20.4711 24.1108C19.8917 24.1675 19.307 24.0951 18.7589 23.8988C18.2108 23.7026 17.713 23.3874 17.3013 22.9758C16.8895 22.5643 16.574 22.0667 16.3775 21.5187C16.1809 20.9708 16.1082 20.3861 16.1645 19.8066C16.2208 19.2272 16.4047 18.6675 16.7031 18.1676C17.0015 17.6677 17.4069 17.2401 17.8902 16.9156C18.3143 16.6286 18.7904 16.43 19.2934 16.3322V7.58014C19.2934 6.9529 19.0442 6.35135 18.6007 5.90783C18.1572 5.4643 17.5556 5.21513 16.9284 5.21513H14.0115L16.0139 7.2175L14.8945 8.33694L11.5362 4.97863V3.87496L14.8945 0.516659L16.0139 1.63609L14.0115 3.63846H16.9284C17.4466 3.63638 17.9601 3.73691 18.4393 3.93426C18.9184 4.13161 19.3538 4.42187 19.7202 4.7883C20.0867 5.15474 20.3769 5.59009 20.5743 6.06926C20.7716 6.54843 20.8721 7.06192 20.8701 7.58014V16.3306ZM20.3166 22.5475C20.7222 22.5068 21.1104 22.3619 21.4435 22.127C21.7766 21.8921 22.0433 21.5751 22.2178 21.2068C22.3923 20.8384 22.4686 20.4312 22.4394 20.0247C22.4102 19.6181 22.2764 19.226 22.051 18.8864C21.7865 18.4946 21.4141 18.1879 20.9788 18.0035C20.5497 17.8288 20.0785 17.7849 19.6245 17.8774C19.1641 17.9664 18.7409 18.1911 18.4094 18.5227C18.0778 18.8543 17.853 19.2775 17.764 19.7378C17.6713 20.1923 17.7152 20.6642 17.8902 21.0938C18.084 21.5652 18.4249 21.9614 18.8621 22.2234C19.2994 22.4853 19.8095 22.599 20.3166 22.5475Z" fill="#ADADAD"/>
</g>
<defs>
<clipPath id="clip0_1095:2464">
<rect width="25" height="25" fill="white" transform="translate(0.5 0.5)"/>
</clipPath>
</defs>
</svg>
