<svg fill="none" xmlns="http://www.w3.org/2000/svg">
    <path d="M16.1745 15L23.0829 8.09162C23.2194 7.9322 23.2907 7.72714 23.2826 7.51741C23.2745 7.30768 23.1876 7.10873 23.0392 6.96032C22.8908 6.8119 22.6918 6.72496 22.4821 6.71686C22.2723 6.70876 22.0673 6.7801 21.9079 6.91662L14.9995 13.825L8.0912 6.90828C7.93428 6.75136 7.72145 6.66321 7.49953 6.66321C7.27761 6.66321 7.06478 6.75136 6.90786 6.90828C6.75094 7.0652 6.66279 7.27803 6.66279 7.49995C6.66279 7.72187 6.75094 7.9347 6.90786 8.09162L13.8245 15L6.90786 21.9083C6.82063 21.983 6.74978 22.0749 6.69976 22.1783C6.64974 22.2817 6.62163 22.3943 6.6172 22.5091C6.61277 22.6238 6.6321 22.7383 6.674 22.8452C6.71589 22.9522 6.77944 23.0493 6.86065 23.1305C6.94187 23.2117 7.03899 23.2753 7.14593 23.3172C7.25287 23.359 7.36731 23.3784 7.48207 23.374C7.59684 23.3695 7.70945 23.3414 7.81284 23.2914C7.91623 23.2414 8.00816 23.1705 8.08286 23.0833L14.9995 16.175L21.9079 23.0833C22.0673 23.2198 22.2723 23.2911 22.4821 23.283C22.6918 23.2749 22.8908 23.188 23.0392 23.0396C23.1876 22.8912 23.2745 22.6922 23.2826 22.4825C23.2907 22.2728 23.2194 22.0677 23.0829 21.9083L16.1745 15Z" fill="#ADADAD" />
</svg>
    