<svg width="16" height="16" viewBox="0 0 16 16" fill="none" xmlns="http://www.w3.org/2000/svg">
    <path d="M5.99984 1.33301H11.9998C12.7332 1.33301 13.3332 1.93301 13.3332 2.66634V13.333C13.3332 14.0663 12.7332 14.6663 11.9998 14.6663H5.99984C5.2665 14.6663 4.6665 14.0663 4.6665 13.333V12.6663C4.6665 12.4895 4.73674 12.32 4.86177 12.1949C4.98679 12.0699 5.15636 11.9997 5.33317 11.9997C5.50998 11.9997 5.67955 12.0699 5.80457 12.1949C5.9296 12.32 5.99984 12.4895 5.99984 12.6663V13.333H11.9998V2.66634H5.99984V3.33301C5.99984 3.50982 5.9296 3.67939 5.80457 3.80441C5.67955 3.92944 5.50998 3.99967 5.33317 3.99967C5.15636 3.99967 4.98679 3.92944 4.86177 3.80441C4.73674 3.67939 4.6665 3.50982 4.6665 3.33301V2.66634C4.6665 1.93301 5.2665 1.33301 5.99984 1.33301Z" fill="#31CA2D"/>
    <path d="M7.19667 10.8634C7.45667 11.1234 7.87667 11.1234 8.13667 10.8634L10.5287 8.47142C10.6536 8.3464 10.7239 8.17686 10.7239 8.00008C10.7239 7.82331 10.6536 7.65377 10.5287 7.52875L8.13667 5.13675C8.00994 5.02221 7.84405 4.96075 7.67329 4.96506C7.50252 4.96937 7.33995 5.03912 7.21916 5.15991C7.09838 5.2807 7.02862 5.44327 7.02431 5.61404C7.02 5.7848 7.08146 5.95069 7.196 6.07742L8.44667 7.33342H2.66667C2.48986 7.33342 2.32029 7.40366 2.19526 7.52868C2.07024 7.6537 2 7.82327 2 8.00008C2 8.17689 2.07024 8.34646 2.19526 8.47149C2.32029 8.59651 2.48986 8.66675 2.66667 8.66675H8.44667L7.196 9.92275C7.07156 10.0477 7.00174 10.2169 7.00187 10.3932C7.00199 10.5696 7.07205 10.7387 7.19667 10.8634V10.8634Z" fill="#31CA2D"/>
    </svg>
    