<svg viewBox="0 0 19 29" fill="none" xmlns="http://www.w3.org/2000/svg"><g clip-path="url(#a)"><path d="M18.063.006 14 0C9.435 0 6.485 2.796 6.485 7.124v3.285H2.4c-.353 0-.639.265-.639.59v4.76c0 .326.286.59.64.59h4.084v12.01c0 .326.286.59.64.59h5.33c.352 0 .638-.265.638-.59v-12.01h4.777c.353 0 .638-.264.638-.59l.002-4.76a.57.57 0 0 0-.187-.417.667.667 0 0 0-.452-.173h-4.778V7.625c0-1.339.345-2.018 2.232-2.018l2.737-.001c.353 0 .639-.265.639-.59V.596c0-.325-.286-.59-.638-.59Z" fill="#000"/></g><defs><clipPath id="a"><path fill="#fff" transform="translate(.067)" d="M0 0h18.634v29H0z"/></clipPath></defs></svg>