<svg width="18" height="18" viewBox="0 0 18 18" fill="none" xmlns="http://www.w3.org/2000/svg">
<path d="M15.1355 6.03886H7.10369C6.88287 5.38302 6.26254 4.90918 5.53319 4.90918C4.80384 4.90918 4.18351 5.38302 3.96269 6.03886H2.70898C2.41775 6.03886 2.18164 6.27496 2.18164 6.5662C2.18164 6.85743 2.41775 7.09354 2.70898 7.09354H3.96273C4.18354 7.74938 4.80387 8.22322 5.53323 8.22322C6.26258 8.22322 6.88291 7.74938 7.10373 7.09354H15.1356C15.4268 7.09354 15.6629 6.85743 15.6629 6.5662C15.6629 6.27496 15.4268 6.03886 15.1355 6.03886ZM5.53319 7.16853C5.20107 7.16853 4.93086 6.89832 4.93086 6.5662C4.93086 6.23408 5.20107 5.96387 5.53319 5.96387C5.86531 5.96387 6.13552 6.23408 6.13552 6.5662C6.13552 6.89832 5.86531 7.16853 5.53319 7.16853Z" fill="#FE4A49"/>
<path d="M15.1355 10.5574H13.8818C13.661 9.90157 13.0406 9.42773 12.3113 9.42773C11.582 9.42773 10.9616 9.90157 10.7408 10.5574H2.70898C2.41775 10.5574 2.18164 10.7935 2.18164 11.0848C2.18164 11.376 2.41775 11.6121 2.70898 11.6121H10.7408C10.9616 12.2679 11.582 12.7418 12.3113 12.7418C13.0406 12.7418 13.661 12.2679 13.8818 11.6121H15.1356C15.4268 11.6121 15.6629 11.376 15.6629 11.0848C15.6629 10.7935 15.4268 10.5574 15.1355 10.5574ZM12.3113 11.6871C11.9792 11.6871 11.709 11.4169 11.709 11.0848C11.709 10.7526 11.9792 10.4824 12.3113 10.4824C12.6434 10.4824 12.9136 10.7526 12.9136 11.0848C12.9136 11.4169 12.6434 11.6871 12.3113 11.6871Z" fill="#FE4A49"/>
</svg>
