<svg width="24" height="21" viewBox="0 0 24 21" fill="none" xmlns="http://www.w3.org/2000/svg">
<path d="M11.9998 20.0484C11.6834 20.0484 11.3784 19.9338 11.1407 19.7256C10.243 18.9406 9.37746 18.2029 8.61384 17.5522L8.60994 17.5489C6.37114 15.641 4.43786 13.9934 3.09272 12.3704C1.58905 10.5559 0.888672 8.83558 0.888672 6.9562C0.888672 5.13023 1.51479 3.44566 2.65157 2.21259C3.80191 0.964925 5.38034 0.277771 7.09661 0.277771C8.37937 0.277771 9.55412 0.683316 10.5882 1.48305C11.11 1.88673 11.583 2.38077 11.9998 2.95704C12.4167 2.38077 12.8895 1.88673 13.4115 1.48305C14.4456 0.683316 15.6203 0.277771 16.9031 0.277771C18.6192 0.277771 20.1978 0.964925 21.3481 2.21259C22.4849 3.44566 23.1109 5.13023 23.1109 6.9562C23.1109 8.83558 22.4106 10.5559 20.907 12.3702C19.5618 13.9934 17.6287 15.6408 15.3903 17.5485C14.6253 18.2002 13.7584 18.9391 12.8587 19.7259C12.6211 19.9338 12.316 20.0484 11.9998 20.0484ZM7.09661 1.57952C5.74825 1.57952 4.50958 2.11764 3.60846 3.09488C2.69395 4.08687 2.19024 5.45813 2.19024 6.9562C2.19024 8.53684 2.77771 9.95049 4.09488 11.5398C5.36797 13.076 7.26158 14.6897 9.45409 16.5582L9.45816 16.5616C10.2247 17.2149 11.0936 17.9554 11.9979 18.7462C12.9077 17.9539 13.7779 17.2121 14.5459 16.5579C16.7383 14.6894 18.6317 13.076 19.9048 11.5398C21.2218 9.95049 21.8093 8.53684 21.8093 6.9562C21.8093 5.45813 21.3056 4.08687 20.3911 3.09488C19.4901 2.11764 18.2513 1.57952 16.9031 1.57952C15.9153 1.57952 15.0085 1.89351 14.2077 2.51267C13.4941 3.0647 12.997 3.76254 12.7056 4.25082C12.5557 4.50191 12.2919 4.65179 11.9998 4.65179C11.7076 4.65179 11.4438 4.50191 11.294 4.25082C11.0027 3.76254 10.5056 3.0647 9.79182 2.51267C8.99107 1.89351 8.08419 1.57952 7.09661 1.57952Z" fill="#ADADAD" stroke="#ADADAD" stroke-width="0.5"/>
</svg>
