<svg fill="none" xmlns="http://www.w3.org/2000/svg">
    <path d="M12.5072 22.0461C12.1939 22.0461 11.8918 21.9296 11.6565 21.7181C10.7675 20.9203 9.91042 20.1706 9.15425 19.5094L9.15039 19.5059C6.93342 17.5671 5.01898 15.8927 3.68695 14.2433C2.19794 12.3993 1.50439 10.651 1.50439 8.74109C1.50439 6.88544 2.12441 5.17349 3.2501 3.92037C4.38923 2.65243 5.95228 1.9541 7.65181 1.9541C8.92206 1.9541 10.0854 2.36624 11.1093 3.17897C11.6261 3.58921 12.0945 4.09129 12.5072 4.67693C12.92 4.09129 13.3882 3.58921 13.9052 3.17897C14.9291 2.36624 16.0924 1.9541 17.3627 1.9541C19.062 1.9541 20.6253 2.65243 21.7644 3.92037C22.8901 5.17349 23.5099 6.88544 23.5099 8.74109C23.5099 10.651 22.8165 12.3993 21.3275 14.2431C19.9955 15.8927 18.0812 17.5669 15.8646 19.5056C15.1071 20.1679 14.2487 20.9188 13.3577 21.7184C13.1225 21.9296 12.8203 22.0461 12.5072 22.0461ZM7.65181 3.27701C6.31659 3.27701 5.09 3.82388 4.19767 4.817C3.29208 5.82512 2.79328 7.21867 2.79328 8.74109C2.79328 10.3474 3.37501 11.784 4.67934 13.3992C5.94002 14.9604 7.81517 16.6003 9.98631 18.4992L9.99034 18.5026C10.7494 19.1665 11.6098 19.9191 12.5053 20.7227C13.4062 19.9175 14.268 19.1637 15.0285 18.4988C17.1995 16.5999 19.0745 14.9604 20.3351 13.3992C21.6393 11.784 22.221 10.3474 22.221 8.74109C22.221 7.21867 21.7222 5.82512 20.8167 4.817C19.9245 3.82388 18.6977 3.27701 17.3627 3.27701C16.3846 3.27701 15.4865 3.5961 14.6936 4.22533C13.9869 4.78634 13.4947 5.49551 13.2061 5.99173C13.0577 6.2469 12.7964 6.39922 12.5072 6.39922C12.2179 6.39922 11.9567 6.2469 11.8082 5.99173C11.5198 5.49551 11.0276 4.78634 10.3207 4.22533C9.52781 3.5961 8.62977 3.27701 7.65181 3.27701Z" fill="#151528" stroke="#151528" stroke-width="0.6" />
</svg>
    