<svg width="23.999999999999996" height="21" xmlns="http://www.w3.org/2000/svg" fill="none">

 <g>
  <title>Layer 1</title>
  <path id="svg_1" stroke-width="0.5" stroke="#ff0000" fill="#ff0000" d="m11.9998,20.0484c-0.3164,0 -0.6214,-0.1146 -0.8591,-0.3228c-0.8977,-0.785 -1.76324,-1.5227 -2.52686,-2.1734l-0.0039,-0.0033c-2.2388,-1.9079 -4.17208,-3.5555 -5.51722,-5.1785c-1.50367,-1.8145 -2.20405,-3.53482 -2.20405,-5.4142c0,-1.82597 0.62612,-3.51054 1.7629,-4.74361c1.15034,-1.24766 2.72877,-1.93482 4.44504,-1.93482c1.28276,0 2.45751,0.40555 3.49159,1.20528c0.5218,0.40368 0.9948,0.89772 1.4116,1.47399c0.4169,-0.57627 0.8897,-1.07031 1.4117,-1.47399c1.0341,-0.79973 2.2088,-1.20528 3.4916,-1.20528c1.7161,0 3.2947,0.68716 4.445,1.93482c1.1368,1.23307 1.7628,2.91764 1.7628,4.74361c0,1.87938 -0.7003,3.5997 -2.2039,5.414c-1.3452,1.6232 -3.2783,3.2706 -5.5167,5.1783c-0.765,0.6517 -1.6319,1.3906 -2.5316,2.1774c-0.2376,0.2079 -0.5427,0.3225 -0.8589,0.3225zm-4.90319,-18.46888c-1.34836,0 -2.58703,0.53812 -3.48815,1.51536c-0.91451,0.99199 -1.41822,2.36325 -1.41822,3.86132c0,1.58064 0.58747,2.99429 1.90464,4.5836c1.27309,1.5362 3.1667,3.1499 5.35921,5.0184l0.00407,0.0034c0.76654,0.6533 1.63544,1.3938 2.53974,2.1846c0.9098,-0.7923 1.78,-1.5341 2.548,-2.1883c2.1924,-1.8685 4.0858,-3.4819 5.3589,-5.0181c1.317,-1.58931 1.9045,-3.00296 1.9045,-4.5836c0,-1.49807 -0.5037,-2.86933 -1.4182,-3.86132c-0.901,-0.97724 -2.1398,-1.51536 -3.488,-1.51536c-0.9878,0 -1.8946,0.31399 -2.6954,0.93315c-0.7136,0.55203 -1.2107,1.24987 -1.5021,1.73815c-0.1499,0.25109 -0.4137,0.40097 -0.7058,0.40097c-0.2922,0 -0.556,-0.14988 -0.7058,-0.40097c-0.2913,-0.48828 -0.7884,-1.18612 -1.50218,-1.73815c-0.80075,-0.61916 -1.70763,-0.93315 -2.69521,-0.93315z"/>
 </g>
</svg>