<svg xmlns="http://www.w3.org/2000/svg" fill="none">
    <g>
        <title>Layer 1</title>
        <path id="svg_1" stroke-width="0.6" stroke="#FE4A49" fill="#FE4A49" d="m12.5072,22.0461c-0.3133,0 -0.6154,-0.1165 -0.8507,-0.328c-0.889,-0.7978 -1.74608,-1.5475 -2.50225,-2.2087l-0.00386,-0.0035c-2.21697,-1.9388 -4.13141,-3.6132 -5.46344,-5.2626c-1.48901,-1.844 -2.18256,-3.5923 -2.18256,-5.50221c0,-1.85565 0.62002,-3.5676 1.74571,-4.82072c1.13913,-1.26794 2.70218,-1.96627 4.40171,-1.96627c1.27025,0 2.43359,0.41214 3.45749,1.22487c0.5168,0.41024 0.9852,0.91232 1.3979,1.49796c0.4128,-0.58564 0.881,-1.08772 1.398,-1.49796c1.0239,-0.81273 2.1872,-1.22487 3.4575,-1.22487c1.6993,0 3.2626,0.69833 4.4017,1.96627c1.1257,1.25312 1.7455,2.96507 1.7455,4.82072c0,1.90991 -0.6934,3.65821 -2.1824,5.50201c-1.332,1.6496 -3.2463,3.3238 -5.4629,5.2625c-0.7575,0.6623 -1.6159,1.4132 -2.5069,2.2128c-0.2352,0.2112 -0.5374,0.3277 -0.8505,0.3277zm-4.85539,-18.76909c-1.33522,0 -2.56181,0.54687 -3.45414,1.53999c-0.90559,1.00812 -1.40439,2.40167 -1.40439,3.92409c0,1.60631 0.58173,3.04291 1.88606,4.65811c1.26068,1.5612 3.13583,3.2011 5.30697,5.1l0.00403,0.0034c0.75906,0.6639 1.61946,1.4165 2.51496,2.2201c0.9009,-0.8052 1.7627,-1.559 2.5232,-2.2239c2.171,-1.8989 4.046,-3.5384 5.3066,-5.0996c1.3042,-1.6152 1.8859,-3.0518 1.8859,-4.65811c0,-1.52242 -0.4988,-2.91597 -1.4043,-3.92409c-0.8922,-0.99312 -2.119,-1.53999 -3.454,-1.53999c-0.9781,0 -1.8762,0.31909 -2.6691,0.94832c-0.7067,0.56101 -1.1989,1.27018 -1.4875,1.7664c-0.1484,0.25517 -0.4097,0.40749 -0.6989,0.40749c-0.2893,0 -0.5505,-0.15232 -0.699,-0.40749c-0.2884,-0.49622 -0.7806,-1.20539 -1.4875,-1.7664c-0.79289,-0.62923 -1.69093,-0.94832 -2.66889,-0.94832z" />
    </g>
</svg>