<svg fill="none" xmlns="http://www.w3.org/2000/svg">
    <path d="M21.935 10.634L21.9334 10.6324L13.367 2.06637C13.0019 1.70107 12.5164 1.5 12.0001 1.5C11.4837 1.5 10.9982 1.70107 10.6329 2.06637L2.07105 10.6281C2.06817 10.631 2.06512 10.634 2.0624 10.6369C1.31258 11.391 1.31386 12.6146 2.06609 13.3668C2.40975 13.7107 2.86349 13.9097 3.34879 13.9306C3.36865 13.9326 3.38852 13.9335 3.40855 13.9335H3.74981V20.2374C3.74981 21.4851 4.76495 22.5 6.01257 22.5H9.364C9.70382 22.5 9.97923 22.2245 9.97923 21.8848V16.9424C9.97923 16.3732 10.4424 15.9101 11.0117 15.9101H12.9884C13.5577 15.9101 14.0207 16.3732 14.0207 16.9424V21.8848C14.0207 22.2245 14.2961 22.5 14.636 22.5H17.9874C19.2352 22.5 20.2501 21.4851 20.2501 20.2374V13.9335H20.5667C21.083 13.9335 21.5684 13.7325 21.9339 13.367C22.6869 12.6137 22.6872 11.3878 21.935 10.634ZM21.0637 12.497C20.9309 12.6298 20.7543 12.7031 20.5667 12.7031H19.6349C19.2951 12.7031 19.0197 12.9785 19.0197 13.3183V20.2374C19.0197 20.8065 18.5566 21.2696 17.9874 21.2696H15.2512V16.9424C15.2512 15.6948 14.2362 14.6797 12.9884 14.6797H11.0117C9.7639 14.6797 8.74876 15.6948 8.74876 16.9424V21.2696H6.01257C5.44347 21.2696 4.98028 20.8065 4.98028 20.2374V13.3183C4.98028 12.9785 4.70487 12.7031 4.36505 12.7031H3.44924C3.43963 12.7024 3.43018 12.7019 3.42041 12.7018C3.23712 12.6986 3.0652 12.6258 2.93639 12.4969C2.66242 12.2229 2.66242 11.777 2.93639 11.5029L2.93719 11.5021L11.5032 2.93635C11.6359 2.80353 11.8123 2.73047 12.0001 2.73047C12.1877 2.73047 12.3641 2.80353 12.4969 2.93635L21.061 11.5003L21.065 11.5041C21.3375 11.7786 21.3371 12.2235 21.0637 12.497Z" fill="#FE4A49" stroke="#FE4A49" stroke-width="0.6" />
</svg>
    