<svg xmlns="http://www.w3.org/2000/svg" fill="none">
 <g>
  <title>Layer 1</title>
  <path id="svg_1" stroke-width="0.6" stroke="#000000" fill="#000000" d="m21.935,10.634l-0.0016,-0.0016l-8.5664,-8.56603c-0.3651,-0.3653 -0.8506,-0.56637 -1.3669,-0.56637c-0.5164,0 -1.0019,0.20107 -1.3672,0.56637l-8.56185,8.56173c-0.00288,0.0029 -0.00593,0.0059 -0.00865,0.0088c-0.74982,0.7541 -0.74854,1.9777 0.00369,2.7299c0.34366,0.3439 0.7974,0.5429 1.2827,0.5638c0.01986,0.002 0.03973,0.0029 0.05976,0.0029l0.34126,0l0,6.3039c0,1.2477 1.01514,2.2626 2.26276,2.2626l3.35143,0c0.33982,0 0.61523,-0.2755 0.61523,-0.6152l0,-4.9424c0,-0.5692 0.46317,-1.0323 1.03247,-1.0323l1.9767,0c0.5693,0 1.0323,0.4631 1.0323,1.0323l0,4.9424c0,0.3397 0.2754,0.6152 0.6153,0.6152l3.3514,0c1.2478,0 2.2627,-1.0149 2.2627,-2.2626l0,-6.3039l0.3166,0c0.5163,0 1.0017,-0.201 1.3672,-0.5665c0.753,-0.7533 0.7533,-1.9792 0.0011,-2.733zm-0.8713,1.863c-0.1328,0.1328 -0.3094,0.2061 -0.497,0.2061l-0.9318,0c-0.3398,0 -0.6152,0.2754 -0.6152,0.6152l0,6.9191c0,0.5691 -0.4631,1.0322 -1.0323,1.0322l-2.7362,0l0,-4.3272c0,-1.2476 -1.015,-2.2627 -2.2628,-2.2627l-1.9767,0c-1.2478,0 -2.26294,1.0151 -2.26294,2.2627l0,4.3272l-2.73619,0c-0.5691,0 -1.03229,-0.4631 -1.03229,-1.0322l0,-6.9191c0,-0.3398 -0.27541,-0.6152 -0.61523,-0.6152l-0.91581,0c-0.00961,-0.0007 -0.01906,-0.0012 -0.02883,-0.0013c-0.18329,-0.0032 -0.35521,-0.076 -0.48402,-0.2049c-0.27397,-0.274 -0.27397,-0.7199 0,-0.994l0.0008,-0.0008l8.56601,-8.56575c0.1327,-0.13282 0.3091,-0.20588 0.4969,-0.20588c0.1876,0 0.364,0.07306 0.4968,0.20588l8.5641,8.56395l0.004,0.0038c0.2725,0.2745 0.2721,0.7194 -0.0013,0.9929z"/>
 </g>
</svg>