<svg width="12" height="12" viewBox="0 0 12 12" fill="none" xmlns="http://www.w3.org/2000/svg">
    <path fill-rule="evenodd" clip-rule="evenodd" d="M6.69342 1.30001C6.69342 1.02387 6.46957 0.800013 6.19342 0.800013C5.91728 0.800013 5.69342 1.02387 5.69342 1.30001V5.30589H1.2998C1.02366 5.30589 0.799805 5.52975 0.799805 5.80589C0.799805 6.08203 1.02366 6.30589 1.2998 6.30589H5.69342V10.7C5.69342 10.9762 5.91728 11.2 6.19342 11.2C6.46957 11.2 6.69342 10.9762 6.69342 10.7V6.30589H10.6998C10.9759 6.30589 11.1998 6.08203 11.1998 5.80589C11.1998 5.52975 10.9759 5.30589 10.6998 5.30589H6.69342V1.30001Z" fill="#151528"/>
    </svg>
    