<svg width="40" height="40" viewBox="0 0 40 40" fill="none" xmlns="http://www.w3.org/2000/svg">
    <path d="M21.1751 20L28.0835 13.0916C28.22 12.9322 28.2913 12.7272 28.2832 12.5174C28.2751 12.3077 28.1882 12.1088 28.0398 11.9603C27.8914 11.8119 27.6924 11.725 27.4827 11.7169C27.273 11.7088 27.0679 11.7801 26.9085 11.9166L20.0001 18.825L13.0918 11.9083C12.9349 11.7514 12.7221 11.6632 12.5001 11.6632C12.2782 11.6632 12.0654 11.7514 11.9085 11.9083C11.7516 12.0652 11.6634 12.2781 11.6634 12.5C11.6634 12.7219 11.7516 12.9347 11.9085 13.0916L18.8251 20L11.9085 26.9083C11.8212 26.983 11.7504 27.075 11.7004 27.1783C11.6503 27.2817 11.6222 27.3943 11.6178 27.5091C11.6134 27.6239 11.6327 27.7383 11.6746 27.8453C11.7165 27.9522 11.7801 28.0493 11.8613 28.1305C11.9425 28.2117 12.0396 28.2753 12.1465 28.3172C12.2535 28.3591 12.3679 28.3784 12.4827 28.374C12.5975 28.3695 12.7101 28.3414 12.8134 28.2914C12.9168 28.2414 13.0088 28.1706 13.0835 28.0833L20.0001 21.175L26.9085 28.0833C27.0679 28.2198 27.273 28.2912 27.4827 28.2831C27.6924 28.275 27.8914 28.188 28.0398 28.0396C28.1882 27.8912 28.2751 27.6923 28.2832 27.4825C28.2913 27.2728 28.22 27.0677 28.0835 26.9083L21.1751 20Z" fill="#ADADAD"/>
    </svg>
    