<svg fill="none" xmlns="http://www.w3.org/2000/svg">
    <path d="M35.5 35.5L28.5 28.5M30.8333 22.6667C30.8333 23.7391 30.6221 24.8011 30.2117 25.7919C29.8013 26.7827 29.1997 27.683 28.4414 28.4414C27.683 29.1997 26.7827 29.8013 25.7919 30.2117C24.8011 30.6221 23.7391 30.8333 22.6667 30.8333C21.5942 30.8333 20.5322 30.6221 19.5414 30.2117C18.5506 29.8013 17.6503 29.1997 16.892 28.4414C16.1336 27.683 15.5321 26.7827 15.1217 25.7919C14.7112 24.8011 14.5 23.7391 14.5 22.6667C14.5 20.5007 15.3604 18.4235 16.892 16.892C18.4235 15.3604 20.5007 14.5 22.6667 14.5C24.8326 14.5 26.9098 15.3604 28.4414 16.892C29.9729 18.4235 30.8333 20.5007 30.8333 22.6667Z" stroke="#151528" stroke-width="2" stroke-linecap="round" stroke-linejoin="round"/>
    </svg>
    