<svg width="23" height="23" xmlns="http://www.w3.org/2000/svg" fill="none">
 <g>
  <title>Layer 1</title>
  <path d="m22,22l-7,-7m2.3333,-5.8333c0,1.0724 -0.2112,2.1344 -0.6216,3.1252c-0.4104,0.9908 -1.012,1.8911 -1.7703,2.6495c-0.7584,0.7583 -1.6587,1.3599 -2.6495,1.7703c-0.9908,0.4104 -2.0528,0.6216 -3.1252,0.6216c-1.0725,0 -2.1345,-0.2112 -3.1253,-0.6216c-0.9908,-0.4104 -1.8911,-1.012 -2.6494,-1.7703c-0.7584,-0.7584 -1.3599,-1.6587 -1.7703,-2.6495c-0.4105,-0.9908 -0.6217,-2.0528 -0.6217,-3.1252c0,-2.166 0.8604,-4.2432 2.392,-5.7747c1.5315,-1.5316 3.6087,-2.392 5.7747,-2.392c2.1659,0 4.2431,0.8604 5.7747,2.392c1.5315,1.5315 2.3919,3.6087 2.3919,5.7747z" stroke="#151528" stroke-width="2" stroke-linecap="round" stroke-linejoin="round" id="svg_1"/>
 </g>

</svg>