<svg width="28" height="28" viewBox="0 0 28 28" fill="none" xmlns="http://www.w3.org/2000/svg">
    <path d="M24.5 24.5L17.5 17.5M19.8333 11.6667C19.8333 12.7391 19.6221 13.8011 19.2117 14.7919C18.8013 15.7827 18.1997 16.683 17.4414 17.4414C16.683 18.1997 15.7827 18.8013 14.7919 19.2117C13.8011 19.6221 12.7391 19.8333 11.6667 19.8333C10.5942 19.8333 9.53224 19.6221 8.54142 19.2117C7.55059 18.8013 6.65031 18.1997 5.89196 17.4414C5.13362 16.683 4.53206 15.7827 4.12165 14.7919C3.71124 13.8011 3.5 12.7391 3.5 11.6667C3.5 9.50073 4.36041 7.42351 5.89196 5.89196C7.42351 4.36041 9.50073 3.5 11.6667 3.5C13.8326 3.5 15.9098 4.36041 17.4414 5.89196C18.9729 7.42351 19.8333 9.50073 19.8333 11.6667Z" stroke="#ADADAD" stroke-width="2" stroke-linecap="round" stroke-linejoin="round"/>
    </svg>
    