<svg width="26" height="26" viewBox="0 0 26 26" fill="none" xmlns="http://www.w3.org/2000/svg">
    <path d="M20.6385 17.3084C19.8138 17.3084 19.0528 17.5918 18.4567 18.0652L12.4614 13.8163C12.5618 13.2765 12.5618 12.7234 12.4614 12.1837L18.4567 7.9348C19.0528 8.40816 19.8138 8.69161 20.6385 8.69161C22.554 8.69161 24.1107 7.16666 24.1107 5.29025C24.1107 3.41383 22.554 1.88889 20.6385 1.88889C18.7229 1.88889 17.1662 3.41383 17.1662 5.29025C17.1662 5.61904 17.2125 5.93367 17.3022 6.23412L11.6078 10.2732C10.7629 9.1763 9.42028 8.46485 7.90697 8.46485C5.3491 8.46485 3.27734 10.4943 3.27734 13C3.27734 15.5057 5.3491 17.5351 7.90697 17.5351C9.42028 17.5351 10.7629 16.8237 11.6078 15.7268L17.3022 19.7659C17.2125 20.0663 17.1662 20.3838 17.1662 20.7097C17.1662 22.5862 18.7229 24.1111 20.6385 24.1111C22.554 24.1111 24.1107 22.5862 24.1107 20.7097C24.1107 18.8333 22.554 17.3084 20.6385 17.3084ZM20.6385 3.81632C21.4689 3.81632 22.1431 4.47675 22.1431 5.29025C22.1431 6.10374 21.4689 6.76417 20.6385 6.76417C19.808 6.76417 19.1338 6.10374 19.1338 5.29025C19.1338 4.47675 19.808 3.81632 20.6385 3.81632ZM7.90697 15.4943C6.50362 15.4943 5.36068 14.3747 5.36068 13C5.36068 11.6253 6.50362 10.5057 7.90697 10.5057C9.31033 10.5057 10.4533 11.6253 10.4533 13C10.4533 14.3747 9.31033 15.4943 7.90697 15.4943ZM20.6385 22.1837C19.808 22.1837 19.1338 21.5232 19.1338 20.7097C19.1338 19.8963 19.808 19.2358 20.6385 19.2358C21.4689 19.2358 22.1431 19.8963 22.1431 20.7097C22.1431 21.5232 21.4689 22.1837 20.6385 22.1837Z" fill="#ADADAD"/>
    </svg>
    