<svg width="28" height="28" viewBox="0 0 28 28" fill="none" xmlns="http://www.w3.org/2000/svg">
    <path d="M10.5564 23.4769C11.0322 23.4769 11.4179 23.0912 11.4179 22.6154C11.4179 22.1396 11.0322 21.7538 10.5564 21.7538C10.0805 21.7538 9.69482 22.1396 9.69482 22.6154C9.69482 23.0912 10.0805 23.4769 10.5564 23.4769Z" stroke="#FEFEFE" stroke-width="2" stroke-linecap="round" stroke-linejoin="round"/>
    <path d="M20.0295 23.4769C20.5053 23.4769 20.891 23.0912 20.891 22.6153C20.891 22.1395 20.5053 21.7538 20.0295 21.7538C19.5537 21.7538 19.168 22.1395 19.168 22.6153C19.168 23.0912 19.5537 23.4769 20.0295 23.4769Z" stroke="#FEFEFE" stroke-width="2" stroke-linecap="round" stroke-linejoin="round"/>
    <path d="M3.66016 5.38464H7.10631L9.41523 16.9206C9.49398 17.3173 9.7098 17.6736 10.0248 17.9272C10.3398 18.1807 10.734 18.3155 11.1383 18.3077H19.5125C19.9168 18.3155 20.3109 18.1807 20.626 17.9272C20.941 17.6736 21.1568 17.3173 21.2355 16.9206L22.614 9.69234H7.96785" stroke="#FEFEFE" stroke-width="2" stroke-linecap="round" stroke-linejoin="round"/>
    </svg>
    