<svg viewBox="0 0 25 24" fill="none" xmlns="http://www.w3.org/2000/svg">
    <g clip-path="url(#clip0_805:653)">
        <path fill-rule="evenodd" clip-rule="evenodd" d="M3.59473 12C3.59473 9.73737 4.49355 7.56741 6.09347 5.96749C7.69339 4.36758 9.86335 3.46875 12.126 3.46875C14.3886 3.46875 16.5586 4.36758 18.1585 5.96749C19.7584 7.56741 20.6572 9.73737 20.6572 12C20.6572 14.2626 19.7584 16.4326 18.1585 18.0325C16.5586 19.6324 14.3886 20.5312 12.126 20.5312C9.86335 20.5312 7.69339 19.6324 6.09347 18.0325C4.49355 16.4326 3.59473 14.2626 3.59473 12ZM12.126 1.5C9.3412 1.5 6.67049 2.60625 4.70136 4.57538C2.73222 6.54451 1.62598 9.21523 1.62598 12C1.62598 14.7848 2.73222 17.4555 4.70136 19.4246C6.67049 21.3938 9.3412 22.5 12.126 22.5C14.9107 22.5 17.5815 21.3938 19.5506 19.4246C21.5197 17.4555 22.626 14.7848 22.626 12C22.626 9.21523 21.5197 6.54451 19.5506 4.57538C17.5815 2.60625 14.9107 1.5 12.126 1.5ZM8.18848 12C8.53657 12 8.87041 11.8617 9.11655 11.6156C9.36269 11.3694 9.50098 11.0356 9.50098 10.6875C9.50098 10.3394 9.36269 10.0056 9.11655 9.75942C8.87041 9.51328 8.53657 9.375 8.18848 9.375C7.84038 9.375 7.50654 9.51328 7.2604 9.75942C7.01426 10.0056 6.87598 10.3394 6.87598 10.6875C6.87598 11.0356 7.01426 11.3694 7.2604 11.6156C7.50654 11.8617 7.84038 12 8.18848 12ZM17.376 10.6875C17.376 11.0356 17.2377 11.3694 16.9916 11.6156C16.7454 11.8617 16.4116 12 16.0635 12C15.7154 12 15.3815 11.8617 15.1354 11.6156C14.8893 11.3694 14.751 11.0356 14.751 10.6875C14.751 10.3394 14.8893 10.0056 15.1354 9.75942C15.3815 9.51328 15.7154 9.375 16.0635 9.375C16.4116 9.375 16.7454 9.51328 16.9916 9.75942C17.2377 10.0056 17.376 10.3394 17.376 10.6875ZM8.60848 14.1472C8.82023 13.999 9.08182 13.94 9.33673 13.9829C9.59164 14.0259 9.81941 14.1674 9.97085 14.3769L9.98004 14.3887C10.1152 14.5436 10.2688 14.6801 10.4394 14.7956C10.7859 15.0292 11.3359 15.2812 12.126 15.2812C12.9161 15.2812 13.4647 15.0292 13.8125 14.7943C13.9832 14.6788 14.1367 14.5423 14.2719 14.3874L14.2811 14.3769C14.3561 14.2716 14.4511 14.1821 14.5606 14.1135C14.6702 14.0449 14.7922 13.9986 14.9197 13.9771C15.0472 13.9557 15.1776 13.9595 15.3036 13.9885C15.4296 14.0175 15.5487 14.071 15.654 14.1459C15.7593 14.2209 15.8488 14.3159 15.9174 14.4255C15.986 14.535 16.0324 14.6571 16.0538 14.7845C16.0753 14.912 16.0714 15.0425 16.0424 15.1685C16.0135 15.2945 15.96 15.4135 15.885 15.5188L15.0791 14.9531C15.885 15.5175 15.8837 15.5188 15.8837 15.5188V15.5201L15.8824 15.5227L15.8797 15.5267L15.8732 15.5359L15.8548 15.5608C15.781 15.6596 15.7003 15.753 15.6133 15.8404C15.4033 16.0582 15.1697 16.2551 14.9177 16.4244C14.0908 16.9731 13.1195 17.2618 12.126 17.25C10.8844 17.25 9.95773 16.8457 9.3356 16.4231C8.98222 16.1832 8.66602 15.8927 8.39716 15.5608L8.37879 15.5346L8.37223 15.5267L8.3696 15.5227V15.5201H8.36829L9.17285 14.9531L8.36698 15.5175C8.2173 15.3039 8.15853 15.0396 8.20356 14.7827C8.2486 14.5258 8.39376 14.2972 8.60716 14.1472H8.60848Z" fill="#151528" />
    </g>
    <defs>
        <clipPath id="clip0_805:653">
            <rect width="21" height="21" fill="white" transform="translate(1.62598 1.5)" />
        </clipPath>
    </defs>
</svg>
    