<svg width="25" height="24" xmlns="http://www.w3.org/2000/svg" fill="none">
 <defs>
  <clipPath id="clip0_805:653">
   <rect width="21" height="21" fill="white" y="1.5" x="1.62598" id="svg_1"/>
  </clipPath>
 </defs>
 <g>
  <title>Layer 1</title>
  <g clip-path="url(#clip0_805:653)" id="svg_2">
   <path stroke="#FE4A49" fill-rule="evenodd" clip-rule="evenodd" d="m3.59473,12c0,-2.26263 0.89882,-4.43259 2.49874,-6.03251c1.59992,-1.59991 3.76988,-2.49874 6.03253,-2.49874c2.2626,0 4.4326,0.89883 6.0325,2.49874c1.5999,1.59992 2.4987,3.76988 2.4987,6.03251c0,2.2626 -0.8988,4.4326 -2.4987,6.0325c-1.5999,1.5999 -3.7699,2.4987 -6.0325,2.4987c-2.26265,0 -4.43261,-0.8988 -6.03253,-2.4987c-1.59992,-1.5999 -2.49874,-3.7699 -2.49874,-6.0325zm8.53127,-10.5c-2.7848,0 -5.45551,1.10625 -7.42464,3.07538c-1.96914,1.96913 -3.07538,4.63985 -3.07538,7.42462c0,2.7848 1.10624,5.4555 3.07538,7.4246c1.96913,1.9692 4.63984,3.0754 7.42464,3.0754c2.7847,0 5.4555,-1.1062 7.4246,-3.0754c1.9691,-1.9691 3.0754,-4.6398 3.0754,-7.4246c0,-2.78477 -1.1063,-5.45549 -3.0754,-7.42462c-1.9691,-1.96913 -4.6399,-3.07538 -7.4246,-3.07538zm-3.93752,10.5c0.34809,0 0.68193,-0.1383 0.92807,-0.3844c0.24614,-0.2462 0.38443,-0.58 0.38443,-0.9281c0,-0.3481 -0.13829,-0.6819 -0.38443,-0.92808c-0.24614,-0.24614 -0.57998,-0.38442 -0.92807,-0.38442c-0.3481,0 -0.68194,0.13828 -0.92808,0.38442c-0.24614,0.24618 -0.38442,0.57998 -0.38442,0.92808c0,0.3481 0.13828,0.6819 0.38442,0.9281c0.24614,0.2461 0.57998,0.3844 0.92808,0.3844zm9.18752,-1.3125c0,0.3481 -0.1383,0.6819 -0.3844,0.9281c-0.2462,0.2461 -0.58,0.3844 -0.9281,0.3844c-0.3481,0 -0.682,-0.1383 -0.9281,-0.3844c-0.2461,-0.2462 -0.3844,-0.58 -0.3844,-0.9281c0,-0.3481 0.1383,-0.6819 0.3844,-0.92808c0.2461,-0.24614 0.58,-0.38442 0.9281,-0.38442c0.3481,0 0.6819,0.13828 0.9281,0.38442c0.2461,0.24618 0.3844,0.57998 0.3844,0.92808zm-8.76752,3.4597c0.21175,-0.1482 0.47334,-0.2072 0.72825,-0.1643c0.25491,0.043 0.48268,0.1845 0.63412,0.394l0.00919,0.0118c0.13516,0.1549 0.28876,0.2914 0.45936,0.4069c0.3465,0.2336 0.8965,0.4856 1.6866,0.4856c0.7901,0 1.3387,-0.252 1.6865,-0.4869c0.1707,-0.1155 0.3242,-0.252 0.4594,-0.4069l0.0092,-0.0105c0.075,-0.1053 0.17,-0.1948 0.2795,-0.2634c0.1096,-0.0686 0.2316,-0.1149 0.3591,-0.1364c0.1275,-0.0214 0.2579,-0.0176 0.3839,0.0114c0.126,0.029 0.2451,0.0825 0.3504,0.1574c0.1053,0.075 0.1948,0.17 0.2634,0.2796c0.0686,0.1095 0.115,0.2316 0.1364,0.359c0.0215,0.1275 0.0176,0.258 -0.0114,0.384c-0.0289,0.126 -0.0824,0.245 -0.1574,0.3503l-0.8059,-0.5657c0.8059,0.5644 0.8046,0.5657 0.8046,0.5657l0,0.0013l-0.0013,0.0026l-0.0027,0.004l-0.0065,0.0092l-0.0184,0.0249c-0.0738,0.0988 -0.1545,0.1922 -0.2415,0.2796c-0.21,0.2178 -0.4436,0.4147 -0.6956,0.584c-0.8269,0.5487 -1.7982,0.8374 -2.7917,0.8256c-1.2416,0 -2.16827,-0.4043 -2.7904,-0.8269c-0.35338,-0.2399 -0.66958,-0.5304 -0.93844,-0.8623l-0.01837,-0.0262l-0.00656,-0.0079l-0.00263,-0.004l0,-0.0026l-0.00131,0l0.80456,-0.567l-0.80587,0.5644c-0.14968,-0.2136 -0.20845,-0.4779 -0.16342,-0.7348c0.04504,-0.2569 0.1902,-0.4855 0.4036,-0.6355l0.00132,0z" fill="#fe4a49" id="svg_3"/>
  </g>
 </g>
</svg>