<svg width="18" height="18" viewBox="0 0 18 18" fill="none" xmlns="http://www.w3.org/2000/svg">
<path d="M13.3369 17C6.53433 17 1 11.7912 1 5.38877C1.00116 4.31468 1.41773 3.27772 2.17189 2.47158C2.92605 1.66545 3.96623 1.14527 5.09812 1.00822C5.35943 0.978618 5.6239 1.02942 5.85198 1.15304C6.08006 1.27666 6.25949 1.46645 6.36344 1.69402L8.10894 5.5272C8.18819 5.70068 8.22052 5.88995 8.20302 6.07806C8.18552 6.26618 8.11875 6.44728 8.00868 6.60516L6.56335 8.68366C6.54701 8.70602 6.53709 8.73198 6.53455 8.75901C6.532 8.78605 6.53693 8.81324 6.54884 8.83796C7.2195 10.1256 8.3288 11.165 9.69997 11.7903C9.72639 11.8014 9.75541 11.8059 9.7842 11.8033C9.813 11.8007 9.84058 11.7911 9.86426 11.7754L12.0393 10.4104C12.2075 10.3044 12.4012 10.2397 12.6028 10.2223C12.8044 10.2049 13.0074 10.2352 13.1933 10.3106L17.2625 11.9521C17.5043 12.0499 17.706 12.2187 17.8374 12.4334C17.9687 12.648 18.0227 12.8969 17.9913 13.1429C17.8457 14.2082 17.293 15.1872 16.4365 15.897C15.58 16.6068 14.4782 16.9989 13.3369 17ZM5.2486 1.98062C5.242 1.98061 5.23542 1.98099 5.22888 1.98177C4.34867 2.08845 3.53983 2.49307 2.95346 3.12006C2.36709 3.74704 2.04329 4.55349 2.04256 5.38877C2.04594 8.20704 3.23696 10.909 5.35434 12.9018C7.47171 14.8946 10.3425 16.0156 13.3369 16.0188C14.2244 16.0181 15.0813 15.7133 15.7474 15.1615C16.4136 14.6096 16.8435 13.8483 16.9569 13.0199C16.9607 12.9852 16.9526 12.9504 16.9336 12.9204C16.9147 12.8905 16.886 12.8672 16.8517 12.8539L12.7826 11.2125C12.7561 11.2018 12.7271 11.1975 12.6983 11.2C12.6695 11.2025 12.6418 11.2117 12.6177 11.2268L10.4427 12.5919C10.268 12.7019 10.0659 12.7673 9.85624 12.7817C9.64659 12.7961 9.43655 12.759 9.24672 12.674C7.66515 11.9526 6.38562 10.7538 5.61202 9.26855C5.52132 9.09095 5.48095 8.89429 5.4948 8.69767C5.50865 8.50105 5.57626 8.31113 5.69108 8.14635L7.13632 6.06778C7.15207 6.0452 7.16162 6.01931 7.16412 5.99241C7.16662 5.96551 7.16199 5.93845 7.15066 5.91364L5.40524 2.08063C5.39228 2.05143 5.37057 2.02641 5.34275 2.00864C5.31493 1.99086 5.28222 1.9811 5.2486 1.98054V1.98062Z" fill="#FEFEFE"/>
</svg>
