<svg viewBox="0 0 33 28" fill="none" xmlns="http://www.w3.org/2000/svg"><path d="M31.264 4.4a11.69 11.69 0 0 1-3.392.92c1.277-.772 2.14-1.862 2.59-3.27a11.517 11.517 0 0 1-3.74 1.432c-1.167-1.249-2.601-1.874-4.304-1.874-1.63 0-3.018.579-4.168 1.736C17.1 4.501 16.526 5.9 16.526 7.541c0 .441.05.894.146 1.36a16.328 16.328 0 0 1-6.776-1.828 16.726 16.726 0 0 1-5.372-4.381 5.843 5.843 0 0 0-.802 2.994c0 1.016.237 1.96.711 2.829a5.912 5.912 0 0 0 1.916 2.112 5.814 5.814 0 0 1-2.663-.753v.073c0 1.433.446 2.691 1.34 3.775.894 1.084 2.022 1.767 3.384 2.048a6.06 6.06 0 0 1-1.55.202c-.341 0-.712-.03-1.114-.091a5.805 5.805 0 0 0 2.08 2.93 5.723 5.723 0 0 0 3.429 1.184c-2.14 1.69-4.578 2.535-7.314 2.535-.523 0-.997-.024-1.423-.074 2.736 1.776 5.752 2.664 9.047 2.664 2.092 0 4.056-.334 5.891-1.001 1.837-.667 3.405-1.561 4.706-2.682a17.906 17.906 0 0 0 3.366-3.867 17.295 17.295 0 0 0 2.106-4.564 16.97 16.97 0 0 0 .675-5.538A12.385 12.385 0 0 0 31.264 4.4Z" fill="#000"/></svg>