<svg width="34" height="23" fill="none" xmlns="http://www.w3.org/2000/svg"><g clip-path="url(#a)"><path d="M33.32 18.4a2.176 2.176 0 0 0-.108-.21c-.555-1.005-1.613-2.239-3.177-3.702l-.033-.033-.016-.016-.017-.017h-.017c-.71-.681-1.158-1.14-1.347-1.374-.344-.446-.42-.898-.233-1.357.133-.346.633-1.076 1.497-2.193.455-.592.815-1.066 1.08-1.424 1.919-2.568 2.75-4.209 2.495-4.923l-.099-.167c-.066-.1-.238-.193-.515-.277-.277-.083-.632-.097-1.064-.041l-4.79.033c-.077-.028-.188-.025-.333.008l-.216.05-.083.043-.066.05a.742.742 0 0 0-.183.176 1.15 1.15 0 0 0-.166.293 27.448 27.448 0 0 1-1.78 3.768c-.41.692-.787 1.292-1.131 1.8s-.632.882-.864 1.122a6.04 6.04 0 0 1-.633.578c-.188.145-.332.207-.432.184a12.51 12.51 0 0 1-.283-.067 1.11 1.11 0 0 1-.374-.41 1.84 1.84 0 0 1-.191-.653 7.215 7.215 0 0 1-.058-.679c-.006-.19-.003-.457.008-.804.012-.346.017-.58.017-.703 0-.424.008-.885.025-1.382.016-.496.03-.89.041-1.18.011-.29.017-.598.017-.921 0-.324-.02-.578-.058-.762a2.612 2.612 0 0 0-.175-.536.902.902 0 0 0-.34-.402 1.917 1.917 0 0 0-.558-.226c-.587-.134-1.336-.207-2.245-.218-2.062-.022-3.387.112-3.974.402a2.24 2.24 0 0 0-.632.502c-.2.246-.228.38-.084.402.666.1 1.137.34 1.414.72l.1.201c.077.145.155.402.233.77.077.37.127.777.15 1.223.055.815.055 1.513 0 2.093a25.474 25.474 0 0 1-.159 1.357 2.73 2.73 0 0 1-.224.787c-.1.201-.167.324-.2.368a.287.287 0 0 1-.083.084 1.239 1.239 0 0 1-.449.084c-.155 0-.344-.078-.565-.235a3.996 3.996 0 0 1-.69-.644 8.508 8.508 0 0 1-.807-1.148c-.3-.49-.61-1.071-.931-1.741l-.266-.486a41.905 41.905 0 0 1-.682-1.365A26.426 26.426 0 0 1 8.3 3.47a1.103 1.103 0 0 0-.4-.536l-.082-.05a1.137 1.137 0 0 0-.266-.143 1.757 1.757 0 0 0-.383-.109l-4.557.034c-.465 0-.781.106-.948.318l-.066.1a.545.545 0 0 0-.05.269c0 .122.033.273.1.452a55.438 55.438 0 0 0 2.17 4.555c.781 1.462 1.46 2.64 2.037 3.533a41.7 41.7 0 0 0 1.763 2.53c.598.792.995 1.3 1.189 1.523.194.224.346.39.457.503l.416.401c.266.268.657.59 1.172.963a20 20 0 0 0 1.713 1.106c.627.363 1.356.658 2.187.887.832.23 1.64.321 2.428.277h1.913c.387-.034.681-.157.881-.369l.066-.084a1.11 1.11 0 0 0 .125-.31c.039-.139.058-.292.058-.46-.011-.48.025-.912.108-1.297.083-.385.177-.676.283-.871a2.14 2.14 0 0 1 .357-.494c.133-.134.228-.215.284-.243.055-.028.099-.047.132-.059.266-.089.58-.002.94.26.36.263.698.587 1.015.972.316.385.695.818 1.139 1.297.443.48.831.838 1.164 1.072l.332.201c.222.134.51.257.865.369.355.111.665.14.931.084l4.257-.067c.422 0 .75-.07.982-.21.233-.14.37-.293.415-.46.045-.168.047-.358.009-.57a2.12 2.12 0 0 0-.117-.444Z" fill="#000"/></g><defs><clipPath id="a"><path fill="#fff" transform="translate(0 .413)" d="M0 0h33.879v22.177H0z"/></clipPath></defs></svg>
