<svg viewBox="0 0 31 27" fill="none" xmlns="http://www.w3.org/2000/svg"><g clip-path="url(#a)"><path d="M29.39 4.064c-1.096-1.311-3.118-1.846-6.98-1.846H8.39c-3.95 0-6.006.57-7.098 1.965C.23 5.544.23 7.549.23 10.325v5.29c0 5.377 1.262 8.107 8.162 8.107H22.41c3.349 0 5.205-.472 6.405-1.63 1.232-1.186 1.757-3.123 1.757-6.477v-5.29c0-2.927-.082-4.944-1.183-6.261ZM19.71 13.7l-6.367 3.35a.971.971 0 0 1-.96-.03.987.987 0 0 1-.472-.843v-6.68c0-.344.178-.663.47-.842a.973.973 0 0 1 .96-.032l6.366 3.329a.986.986 0 0 1 .002 1.748Z" fill="#000"/></g><defs><clipPath id="a"><path fill="#fff" transform="translate(.229 .707)" d="M0 0h30.491v25.588H0z"/></clipPath></defs></svg>