<svg width="26" height="24" xmlns="http://www.w3.org/2000/svg" fill="none">

 <g>
  <title>Layer 1</title>
  <path id="svg_1" stroke-width="0.2" stroke="#fe4a49" fill="#fe4a49" d="m18.4496,11.7685l5.9348,5.9549c0.996,0.9995 0.9961,2.6253 0.0002,3.6248c-0.9987,1.0024 -2.6157,1.0023 -3.6144,0.0002l-5.903,-5.923c-2.5439,1.1485 -5.70926,0.7204 -7.87487,-1.4525c-2.74778,-2.7571 -2.74778,-7.2429 0,-10m11.45727,7.7956c1.1034,-2.58066 0.6075,-5.69131 -1.4897,-7.7956c-2.7543,-2.76368 -7.2129,-2.76405 -9.96757,0m11.45727,7.7956c-0.0089,0.0209 -0.018,0.0418 -0.0271,0.0627l-0.0916,-0.0402l0.0708,-0.0706l0.0479,0.0481zm-11.45727,-7.7956l0.07083,0.07059l-0.07083,-0.07059c0,0 0,0 0,0zm1.25017,8.747l-0.07083,0.0706l0.07083,-0.0706c-2.05903,-2.066 -2.05904,-5.42798 0,-7.49403c2.0635,-2.07053 5.4034,-2.07088 7.4672,0c2.059,2.06605 2.059,5.42803 0,7.49403c-2.0635,2.0706 -5.4034,2.0709 -7.4672,0zm13.7779,7.3756l-0.0709,0.0705l0.0709,-0.0706l-5.6081,-5.6271c0.4092,-0.3335 0.7788,-0.7095 1.106,-1.127l5.6159,5.635c0.3074,0.3085 0.3074,0.8107 0.0001,1.1191c-0.3079,0.309 -0.806,0.3091 -1.1139,0.0001z"/>
  <path id="svg_2" stroke-width="0.2" stroke="#fe4a49" fill="#fe4a49" d="m1.57928,13.0991l2.0683,0c0.1762,0 0.3249,-0.1036 0.42529,-0.2492c0.10069,-0.1459 0.15976,-0.3421 0.15976,-0.554c0,-0.2118 -0.05907,-0.408 -0.15976,-0.554c-0.10039,-0.1455 -0.24909,-0.2491 -0.42529,-0.2491l-2.0683,0c-0.17619,0 -0.32489,0.1036 -0.42529,0.2491c-0.10068,0.146 -0.15975,0.3422 -0.15975,0.554c0,0.2119 0.05907,0.4081 0.15975,0.554c0.1004,0.1456 0.2491,0.2492 0.42529,0.2492z"/>
  <path id="svg_3" stroke-width="0.2" stroke="#fe4a49" fill="#fe4a49" d="m1.60792,16.1001l3.01179,0c0.18153,0 0.33729,-0.101 0.44397,-0.247c0.10674,-0.1461 0.16971,-0.3431 0.16971,-0.5562c0,-0.2131 -0.06297,-0.4101 -0.16971,-0.5562c-0.10668,-0.146 -0.26244,-0.247 -0.44397,-0.247l-3.01179,0c-0.18153,0 -0.33729,0.101 -0.44397,0.247c-0.10675,0.1461 -0.16971,0.3431 -0.16971,0.5562c0,0.2131 0.06296,0.4101 0.16971,0.5562c0.10668,0.146 0.26244,0.247 0.44397,0.247z"/>
  <path id="svg_4" stroke-width="0.2" stroke="#fe4a49" fill="#fe4a49" d="m1.67201,19.0991l5.85133,0c0.39179,0 0.67778,-0.3789 0.67778,-0.8032c0,-0.4243 -0.28599,-0.8031 -0.67778,-0.8031l-5.85133,0c-0.39179,0 -0.67777,0.3788 -0.67777,0.8031c0,0.4243 0.28598,0.8032 0.67777,0.8032z"/>
  <path id="svg_5" stroke-width="0.2" stroke="#fe4a49" fill="#fe4a49" d="m14.5073,20.4937l-12.82616,0c-0.39552,0 -0.6869,0.3773 -0.6869,0.8032c0,0.4259 0.29138,0.8032 0.6869,0.8032l12.82616,0c0.3956,0 0.6869,-0.3773 0.6869,-0.8032c0,-0.4259 -0.2913,-0.8032 -0.6869,-0.8032z"/>
 </g>
</svg>