<svg viewBox="0 0 26 24" fill="none" xmlns="http://www.w3.org/2000/svg">
    <path d="M18.4496 11.7685L24.3844 17.7234C25.3804 18.7229 25.3805 20.3487 24.3846 21.3482C23.3859 22.3506 21.7689 22.3505 20.7702 21.3484L14.8672 15.4254C12.3233 16.5739 9.15794 16.1458 6.99233 13.9729C4.24455 11.2158 4.24455 6.73 6.99233 3.9729M18.4496 11.7685C19.553 9.18784 19.0571 6.07719 16.9599 3.9729C14.2056 1.20922 9.747 1.20885 6.99233 3.9729M18.4496 11.7685C18.4407 11.7894 18.4316 11.8103 18.4225 11.8312L18.3309 11.791L18.4017 11.7204L18.4496 11.7685ZM6.99233 3.9729L7.06316 4.04349L6.99233 3.9729C6.99233 3.9729 6.99233 3.9729 6.99233 3.9729ZM8.2425 12.7199L8.17167 12.7905L8.2425 12.7199C6.18347 10.6539 6.18346 7.29192 8.2425 5.22587C10.306 3.15534 13.6459 3.15499 15.7097 5.22587C17.7687 7.29192 17.7687 10.6539 15.7097 12.7199C13.6462 14.7905 10.3063 14.7908 8.2425 12.7199ZM22.0204 20.0955L21.9495 20.166L22.0204 20.0954L16.4123 14.4683C16.8215 14.1348 17.1911 13.7588 17.5183 13.3413L23.1342 18.9763C23.4416 19.2848 23.4416 19.787 23.1343 20.0954C22.8264 20.4044 22.3283 20.4045 22.0204 20.0955Z" fill="#151528" stroke="#151528" stroke-width="0.2" />
    <path d="M1.57928 13.0991H3.64758C3.82378 13.0991 3.97248 12.9955 4.07287 12.8499C4.17356 12.704 4.23263 12.5078 4.23263 12.2959C4.23263 12.0841 4.17356 11.8879 4.07287 11.7419C3.97248 11.5964 3.82378 11.4928 3.64758 11.4928H1.57928C1.40309 11.4928 1.25439 11.5964 1.15399 11.7419C1.05331 11.8879 0.994238 12.0841 0.994238 12.2959C0.994238 12.5078 1.05331 12.704 1.15399 12.8499C1.25439 12.9955 1.40309 13.0991 1.57928 13.0991Z" fill="#151528" stroke="black" stroke-width="0.2" />
    <path d="M1.60792 16.1001H4.61971C4.80124 16.1001 4.957 15.9991 5.06368 15.8531C5.17042 15.707 5.23339 15.51 5.23339 15.2969C5.23339 15.0838 5.17042 14.8868 5.06368 14.7407C4.957 14.5947 4.80124 14.4937 4.61971 14.4937H1.60792C1.42639 14.4937 1.27063 14.5947 1.16395 14.7407C1.0572 14.8868 0.994238 15.0838 0.994238 15.2969C0.994238 15.51 1.0572 15.707 1.16395 15.8531C1.27063 15.9991 1.42639 16.1001 1.60792 16.1001Z" fill="#151528" stroke="black" stroke-width="0.2" />
    <path d="M1.67201 19.0991H7.52334C7.91513 19.0991 8.20112 18.7202 8.20112 18.2959C8.20112 17.8716 7.91513 17.4928 7.52334 17.4928H1.67201C1.28022 17.4928 0.994238 17.8716 0.994238 18.2959C0.994238 18.7202 1.28022 19.0991 1.67201 19.0991Z" fill="#151528" stroke="black" stroke-width="0.2" />
    <path d="M14.5073 20.4937H1.68114C1.28562 20.4937 0.994238 20.871 0.994238 21.2969C0.994238 21.7228 1.28562 22.1001 1.68114 22.1001H14.5073C14.9029 22.1001 15.1942 21.7228 15.1942 21.2969C15.1942 20.871 14.9029 20.4937 14.5073 20.4937Z" fill="#151528" stroke="black" stroke-width="0.2" />
</svg>
    